<?xml version="1.0" encoding="UTF-8" standalone="no"?> <!-- Created with Vectornator for iOS (http://vectornator.io/) --><!DOCTYPE svg PUBLIC "-//W3C//DTD SVG 1.1//EN" "http://www.w3.org/Graphics/SVG/1.1/DTD/svg11.dtd">
<svg style="fill-rule:evenodd;clip-rule:evenodd;stroke-linecap:round;stroke-linejoin:round;" xmlns:vectornator="http://vectornator.io" xmlns:xlink="http://www.w3.org/1999/xlink" xmlns="http://www.w3.org/2000/svg" xml:space="preserve" version="1.1" viewBox="0 0 1300 1300">
<metadata>
<vectornator:setting key="DisplayWhiteBackground" value="0"/>
<vectornator:setting key="RulersVisible" value="1"/>
<vectornator:setting key="GridSpacing" value="36"/>
<vectornator:setting key="Units" value="Pixels"/>
<vectornator:setting key="DynamicGuides" value="0"/>
<vectornator:setting key="SnapToPoints" value="0"/>
<vectornator:setting key="SnapToGrid" value="0"/>
<vectornator:setting key="SnapToGuides" value="1"/>
<vectornator:setting key="SnapToEdges" value="0"/>
</metadata>
<defs/>
<g id="Hintergrund" vectornator:layerName="Hintergrund">
<path stroke="#3d689c" stroke-width="1" d="M0.561044-2.36138L1302.74-2.36138L1302.74+1298.9L0.561044+1298.9L0.561044-2.36138Z" fill="#3d689c" stroke-linecap="round" opacity="1" stroke-linejoin="round"/>
</g>
<g id="Grafik" vectornator:layerName="Grafik">
<path stroke="#f0e8e8" stroke-width="1" d="M575.682+497.912L504.201+572.551C504.201+572.551+486.215+572.028+481.097+574.336C475.98+576.644+454.46+597.639+454.46+597.639L370.754+684.405C370.754+684.405+345.438+703.652+341.849+722.838C338.259+742.024+348.17+754.059+348.17+754.059L429.425+837.98C429.425+837.98+452.14+854.722+469.592+853.189C488.362+851.541+506.276+830.958+506.276+830.958L594.359+744.311C594.359+744.311+610.43+731.454+619.404+717.022C628.378+702.59+626.558+691.216+626.558+691.216L696.939+622.03C714.667+639.715+719.816+672.171+720.725+694.367C722.614+740.46+696.613+780.144+659.629+816.691L563.732+907.155C508.937+961.301+417.851+958.881+363.312+904.474L285.908+821.743C231.369+767.336+233.752+685.772+288.547+631.625L393.888+521.531C427.359+488.456+477.843+474.094+500.48+475.66C529.383+477.66+554.458+476.739+575.682+497.912Z" fill="#3d689c" stroke-linecap="round" opacity="0" stroke-linejoin="round"/>
<path stroke="#f0e8e8" stroke-width="1" d="M575.682+498.637L504.201+573.276C504.201+573.276+486.215+572.753+481.097+575.06C475.98+577.368+454.46+598.364+454.46+598.364L370.754+685.13C370.754+685.13+345.438+704.377+341.849+723.563C338.259+742.748+348.17+754.783+348.17+754.783L429.425+838.704C429.425+838.704+452.14+855.446+469.592+853.914C488.362+852.266+506.276+831.683+506.276+831.683L594.359+745.035C594.359+745.035+610.43+732.178+619.404+717.746C628.378+703.315+626.558+691.941+626.558+691.941L696.939+622.755C714.667+640.439+719.816+672.896+720.725+695.092C722.614+741.184+696.613+780.869+659.629+817.416L563.732+907.879C508.937+962.026+417.851+959.606+363.312+905.199L285.908+822.467C231.369+768.06+233.752+686.496+288.547+632.35L393.888+522.256C427.359+489.181+477.843+474.818+500.48+476.385C529.383+478.385+554.458+477.464+575.682+498.637Z" fill="#3d689c" stroke-linecap="round" opacity="0" stroke-linejoin="round"/>
<path stroke="#f0e8e8" stroke-width="1" d="M575.682+498.637L504.201+573.276C504.201+573.276+486.215+572.753+481.097+575.06C475.98+577.368+454.46+598.364+454.46+598.364L370.754+685.13C370.754+685.13+345.438+704.377+341.849+723.563C338.259+742.748+348.17+754.783+348.17+754.783L429.425+838.704C429.425+838.704+452.14+855.446+469.592+853.914C488.362+852.266+506.276+831.683+506.276+831.683L594.359+745.035C594.359+745.035+610.43+732.178+619.404+717.746C628.378+703.315+626.558+691.941+626.558+691.941L696.939+622.755C714.667+640.439+719.816+672.896+720.725+695.092C722.614+741.184+696.613+780.869+659.629+817.416L563.732+907.879C508.937+962.026+417.851+959.606+363.312+905.199L285.908+822.467C231.369+768.06+233.752+686.496+288.547+632.35L393.888+522.256C427.359+489.181+477.843+474.818+500.48+476.385C529.383+478.385+554.458+477.464+575.682+498.637Z" fill="#3d689c" stroke-linecap="round" opacity="0" stroke-linejoin="round"/>
<path stroke="#ffffff" stroke-width="1" d="M595.228+784.779L666.83+710.255C666.83+710.255+684.815+710.807+689.936+708.508C695.057+706.208+716.611+685.248+716.611+685.248L800.457+598.617C800.457+598.617+825.804+579.411+829.425+560.231C833.045+541.051+823.154+529+823.154+529L742.035+444.948C742.035+444.948+719.347+428.169+701.892+429.673C683.12+431.291+665.173+451.845+665.173+451.845L576.95+538.35C576.95+538.35+560.858+551.181+551.861+565.599C542.864+580.016+544.665+591.393+544.665+591.393L474.172+660.465C456.473+642.752+451.376+610.287+450.503+588.089C448.688+541.994+474.754+502.351+511.797+465.864L607.84+375.556C662.722+321.498+753.804+324.065+808.255+378.56L885.525+461.417C939.976+515.912+937.462+597.472+882.579+651.53L777.06+761.453C743.535+794.475+693.028+808.755+670.394+807.152C641.495+805.106+616.418+805.986+595.228+784.779Z" fill="#f6f6f6" stroke-linecap="round" opacity="1" stroke-linejoin="round"/>
<path stroke="#ffffff" stroke-width="1" d="M456.551+681.112L385.069+755.752C385.069+755.752+367.083+755.228+361.966+757.536C356.849+759.844+335.329+780.839+335.329+780.839L251.623+867.606C251.623+867.606+226.307+886.852+222.717+906.038C219.128+925.224+229.039+937.259+229.039+937.259L310.294+1021.18C310.294+1021.18+333.009+1037.92+350.461+1036.39C369.231+1034.74+387.144+1014.16+387.144+1014.16L475.227+927.511C475.227+927.511+491.298+914.654+500.272+900.222C509.246+885.79+507.427+874.416+507.427+874.416L577.808+805.231C595.535+822.915+600.684+855.371+601.594+877.568C603.483+923.66+577.481+963.344+540.497+999.892L444.601+1090.35C389.806+1144.5+298.719+1142.08+244.181+1087.67L166.777+1004.94C112.238+950.536+114.621+868.972+169.415+814.825L274.757+704.732C308.228+671.656+358.712+657.294+381.349+658.86C410.251+660.86+435.327+659.94+456.551+681.112Z" fill="#ffffff" stroke-linecap="round" opacity="1" stroke-linejoin="round"/>
<path stroke="#ffffff" stroke-width="1" d="M661.195+593.164L661.195+593.164C684.737+616.599+693.491+645.14+670.056+668.682L439.615+902.747C416.179+926.288+383.609+919.089+360.067+895.654L360.067+895.654C336.525+872.218+332.843+842.228+356.279+818.686L583.097+591.868C606.533+568.327+637.653+569.728+661.195+593.164Z" fill="#ffffff" stroke-linecap="round" opacity="1" stroke-linejoin="round"/>
<path stroke="#ffffff" stroke-width="1" d="M1090.37+210.813L1090.37+210.813C1103.38+210.813+1113.93+221.358+1113.93+234.365L1113.93+505.387C1113.93+518.394+1103.38+528.938+1090.37+528.938L1090.37+528.938C1077.37+528.938+1066.82+518.394+1066.82+505.387L1066.82+234.365C1066.82+221.358+1077.37+210.813+1090.37+210.813Z" fill="#ffffff" stroke-linecap="round" opacity="1" stroke-linejoin="round"/>
<path stroke="#ffffff" stroke-width="1" d="M950.865+287.318L950.865+287.318C957.75+276.282+972.277+272.917+983.313+279.802L1213.26+423.253C1224.29+430.137+1227.66+444.664+1220.77+455.7L1220.77+455.7C1213.89+466.736+1199.36+470.101+1188.33+463.216L958.381+319.765C947.346+312.881+943.981+298.354+950.865+287.318Z" fill="#ffffff" stroke-linecap="round" opacity="1" stroke-linejoin="round"/>
<path stroke="#ffffff" stroke-width="1" d="M947.851+454.5L947.851+454.5C941.154+443.349+944.764+428.881+955.915+422.184L1188.25+282.64C1199.4+275.943+1213.87+279.553+1220.57+290.704L1220.57+290.704C1227.26+301.854+1223.65+316.322+1212.5+323.02L980.167+462.563C969.017+469.261+954.548+465.65+947.851+454.5Z" fill="#ffffff" stroke-linecap="round" opacity="1" stroke-linejoin="round"/>
</g>
</svg>
